<svg id="Camada_1" data-name="Camada 1" xmlns="http://www.w3.org/2000/svg" viewBox="0 0 481.77 82.82"><defs><style>.cls-1{fill:#fff;}</style></defs><path class="cls-1" d="M37.94,25.18H54.45V78.56H40.33l-2.39-4.09a26.85,26.85,0,0,1-6.52,3,26.53,26.53,0,0,1-7.84,1.13,36.71,36.71,0,0,1-7.36-.86A22.11,22.11,0,0,1,8.5,74.47a19.49,19.49,0,0,1-6-6.56Q0,63.71,0,57V25.18H16.52V56.41a8.8,8.8,0,0,0,.9,4.19,7.36,7.36,0,0,0,2.4,2.74,10.74,10.74,0,0,0,3.43,1.5,16.43,16.43,0,0,0,4,.48,13.91,13.91,0,0,0,3.43-.48,11.5,11.5,0,0,0,3.49-1.56,9.15,9.15,0,0,0,2.71-2.79,7.48,7.48,0,0,0,1.08-4.08Z"/><path class="cls-1" d="M96.18,25.18a36.12,36.12,0,0,1,7.39.86,22.13,22.13,0,0,1,7.64,3.23,19.46,19.46,0,0,1,6,6.57q2.44,4.19,2.45,10.87V78.56H103.16V47.33a9.07,9.07,0,0,0-.89-4.19,7.43,7.43,0,0,0-2.4-2.74,10.76,10.76,0,0,0-3.41-1.5,15.7,15.7,0,0,0-3.83-.48,13.69,13.69,0,0,0-3.41.48,11.29,11.29,0,0,0-3.47,1.56,8.86,8.86,0,0,0-2.69,2.79A7.48,7.48,0,0,0,82,47.33V78.56H65.46V25.18H79.59L82,29.27a27.36,27.36,0,0,1,6.44-3A25.76,25.76,0,0,1,96.18,25.18Z"/><path class="cls-1" d="M139.78,17.86a9.29,9.29,0,0,1-6.46-2.36,7.5,7.5,0,0,1-2.63-5.81,7.66,7.66,0,0,1,2.63-5.87,9.85,9.85,0,0,1,12.93,0,7.69,7.69,0,0,1,2.63,5.87,7.54,7.54,0,0,1-2.63,5.81A9.33,9.33,0,0,1,139.78,17.86ZM148,78.56H131.52V25.18H148Z"/><path class="cls-1" d="M212.86,39.28a19.82,19.82,0,0,1,7.66,6.89,18.67,18.67,0,0,1-.12,19.31,26.55,26.55,0,0,1-7.78,7.91,35.36,35.36,0,0,1-10.35,4.79A47.16,47.16,0,0,1,190,80a46.11,46.11,0,0,1-12.33-1.62,32.77,32.77,0,0,1-10.41-4.84,23.85,23.85,0,0,1-9.34-11.19l16.76-7a6.13,6.13,0,0,0,.84,2.69,10.32,10.32,0,0,0,2.63,3.13,16,16,0,0,0,4.67,2.58,20.14,20.14,0,0,0,7.06,1.07A21.18,21.18,0,0,0,195.8,64a16.28,16.28,0,0,0,4.31-1.88,8.43,8.43,0,0,0,2.63-2.58,5.58,5.58,0,0,0,.9-3,5,5,0,0,0-1.25-3.23A8.24,8.24,0,0,0,198.5,51a91.79,91.79,0,0,0-10.12-2.53A95.44,95.44,0,0,1,178,45.9a42.25,42.25,0,0,1-9.33-4.15,18.47,18.47,0,0,1-6.83-7.21,17.69,17.69,0,0,1-2.27-8.71,20.38,20.38,0,0,1,2.69-10,24.88,24.88,0,0,1,7.36-8.18,34.68,34.68,0,0,1,9.94-4.79A39.89,39.89,0,0,1,191.2,1.18,41.52,41.52,0,0,1,202.86,2.8a33.29,33.29,0,0,1,10,4.73,24.06,24.06,0,0,1,6.82,6.78L206,22.71a18.56,18.56,0,0,0-14.73-6.89c-4.3,0-7.64.86-10,2.58a8,8,0,0,0-3.53,6.78,4.33,4.33,0,0,0,2,3.45,20.12,20.12,0,0,0,5.14,2.69A56.26,56.26,0,0,0,192,33.41l7.84,1.83c2.59.61,5,1.24,7.36,1.89A26.5,26.5,0,0,1,212.86,39.28Z"/><path class="cls-1" d="M265.4,23.68a27.27,27.27,0,0,1,19.74,8.23A27.79,27.79,0,0,1,291,40.84,28.65,28.65,0,0,1,293,51.76v26.8H276.88V68.77q0-4.09.07-8.45t.05-7.48a16.88,16.88,0,0,0-1.08-5.92,16.37,16.37,0,0,0-3-5.11,15.52,15.52,0,0,0-4.51-3.55,11.62,11.62,0,0,0-5.47-1.35,15.45,15.45,0,0,0-5.29.92,12.9,12.9,0,0,0-4.44,2.69A12.63,12.63,0,0,0,250.14,45,16.22,16.22,0,0,0,249,51.33V78.56H232.48V0H249l.12,29.27a22.56,22.56,0,0,1,7.12-4.14A26.72,26.72,0,0,1,265.4,23.68Z"/><path class="cls-1" d="M389.5,32.61a23.33,23.33,0,0,1,2.75-3.28,17.6,17.6,0,0,1,3.71-2.8,20.57,20.57,0,0,1,4.91-2,23.65,23.65,0,0,1,6.22-.76,41.33,41.33,0,0,1,9.46,1.29L415,38.31c-.88-.14-1.76-.32-2.63-.54s-1.52-.27-2.4-.37a19.42,19.42,0,0,0-2.39-.17,25.32,25.32,0,0,0-7.12,1,19,19,0,0,0-5.69,2.69A13.74,13.74,0,0,0,390.93,45a10.1,10.1,0,0,0-1.43,5.22v28.3H373V25.18h15Z"/><path class="cls-1" d="M451.85,23.68a29.91,29.91,0,0,1,12.21,2.42,30.72,30.72,0,0,1,9.45,6.35,28.05,28.05,0,0,1,6.11,9A26.83,26.83,0,0,1,481.77,52a27.23,27.23,0,0,1-1,6.89H438.45a19.28,19.28,0,0,0,6.82,6.18,18.92,18.92,0,0,0,9.57,2.53,48.28,48.28,0,0,0,9-.75,55.34,55.34,0,0,0,7.36-1.94l5.5,9.15a35.81,35.81,0,0,1-10.11,4.3,47,47,0,0,1-12.15,1.51,38.43,38.43,0,0,1-13.16-2.21,35.34,35.34,0,0,1-10.65-6,27.86,27.86,0,0,1-7.18-8.93,23.77,23.77,0,0,1-2.64-11A25.13,25.13,0,0,1,423.25,41,27.54,27.54,0,0,1,429.89,32a32.79,32.79,0,0,1,9.87-6.08A32.06,32.06,0,0,1,451.85,23.68Zm13.52,23.67a14.91,14.91,0,0,0-5.14-7.53,13.24,13.24,0,0,0-8.38-2.91,14.14,14.14,0,0,0-8.68,2.91,14.52,14.52,0,0,0-5.32,7.53Z"/><path class="cls-1" d="M360.54,39.54V24.87H347.05v5.34l-14.26-9.87L294.06,47.13l8.12,9.48,4-2.75v24.7h22.92V60.46h8.34v18.1h22V53.86l4,2.75,8.11-9.48Zm-5.66,34.93H342V56.38H324.52V74.47H310.69V50.72l22.1-15.28,22.09,15.28V74.47Zm7.69-23.59-29.78-20.6L303,50.88l-2.57-3,32.35-22.38,18.8,13V29H356V41.55l9.14,6.32Z"/></svg>